<?xml version="1.0" standalone="no"?>
<!DOCTYPE svg PUBLIC "-//W3C//DTD SVG 20010904//EN"
 "http://www.w3.org/TR/2001/REC-SVG-20010904/DTD/svg10.dtd">
<svg version="1.0" xmlns="http://www.w3.org/2000/svg"
 width="512.000000pt" height="512.000000pt" viewBox="0 0 512.000000 512.000000"
 preserveAspectRatio="xMidYMid meet">

<g transform="translate(0.000000,512.000000) scale(0.100000,-0.100000)"
fill="#000000" stroke="none">
<path d="M92 5103 c-18 -9 -45 -32 -60 -51 l-27 -35 0 -2457 0 -2457 27 -35
c57 -74 -181 -68 2528 -68 2709 0 2471 -6 2528 68 l27 35 0 2457 0 2457 -27
35 c-57 74 181 68 -2530 68 -2232 0 -2436 -2 -2466 -17z m4703 -2543 l0 -2235
-2235 0 -2235 0 -3 2225 c-1 1224 0 2231 3 2238 3 10 456 12 2237 10 l2233 -3
0 -2235z"/>
<path d="M1222 4514 c-238 -52 -448 -228 -544 -455 -61 -145 -59 -89 -56
-1529 3 -1232 4 -1319 21 -1375 64 -213 218 -397 411 -490 136 -65 338 -95
405 -60 99 51 120 178 42 256 -40 40 -45 42 -163 57 -197 25 -351 168 -388
361 -14 74 -14 2488 0 2562 36 190 190 335 382 361 115 15 144 25 177 63 69
79 45 201 -50 250 -35 19 -151 18 -237 -1z"/>
<path d="M3654 4512 c-92 -58 -111 -169 -43 -247 33 -38 62 -48 177 -63 192
-26 346 -171 382 -361 14 -74 14 -2488 0 -2562 -37 -193 -191 -336 -388 -361
-118 -15 -123 -17 -163 -57 -78 -78 -57 -205 42 -256 67 -35 270 -5 404 60
207 99 361 291 415 515 19 83 20 113 20 1380 0 1267 -1 1297 -20 1380 -54 224
-208 416 -415 515 -96 47 -173 66 -285 72 -82 4 -99 2 -126 -15z"/>
<path d="M1686 4100 c-37 -12 -85 -56 -102 -97 -11 -25 -14 -104 -14 -361 0
-320 1 -329 23 -372 33 -65 66 -85 140 -85 49 0 69 5 95 23 66 48 67 52 70
409 3 352 0 382 -49 438 -42 47 -100 63 -163 45z"/>
<path d="M2570 4094 c-103 -28 -195 -105 -241 -203 -51 -108 -50 -388 2 -501
32 -70 103 -141 177 -177 50 -25 68 -28 152 -28 82 0 103 4 152 27 79 37 142
98 181 177 l32 66 0 190 c0 188 0 191 -28 247 -53 108 -148 182 -265 207 -67
14 -94 13 -162 -5z m130 -333 c5 -11 10 -64 10 -119 0 -83 -3 -104 -19 -123
-16 -21 -22 -22 -45 -11 -26 12 -26 12 -26 130 0 78 4 122 12 130 18 18 56 14
68 -7z"/>
<path d="M3407 4096 c-48 -17 -71 -38 -91 -81 -14 -28 -16 -85 -16 -378 0
-341 0 -344 23 -378 72 -106 203 -106 275 1 l23 34 -3 356 c-3 354 -3 355 -26
388 -42 58 -119 82 -185 58z"/>
<path d="M1640 3005 c-107 -30 -182 -93 -237 -197 -28 -53 -28 -54 -28 -253 0
-185 2 -204 22 -248 33 -70 113 -149 186 -183 54 -25 74 -29 152 -29 77 0 98
4 147 27 79 37 142 98 181 177 l32 66 0 190 c0 186 -1 191 -27 248 -75 160
-262 248 -428 202z m130 -334 c5 -11 10 -67 10 -125 0 -102 -1 -106 -25 -122
-24 -16 -27 -16 -45 1 -18 16 -20 31 -20 130 0 73 4 115 12 123 18 18 56 14
68 -7z"/>
<path d="M2590 2998 c-32 -17 -51 -37 -67 -68 -23 -43 -23 -52 -23 -378 0
-372 1 -379 67 -429 94 -72 227 -19 253 99 12 60 13 608 0 662 -25 112 -133
165 -230 114z"/>
<path d="M3390 2998 c-87 -45 -85 -31 -88 -437 l-3 -357 23 -34 c39 -57 72
-75 138 -75 66 0 99 18 138 75 l23 34 -3 357 c-3 343 -4 359 -24 386 -24 33
-97 73 -134 73 -14 0 -46 -10 -70 -22z"/>
<path d="M1611 1921 c-101 -38 -188 -126 -223 -224 -27 -80 -26 -365 2 -441
57 -152 186 -240 351 -240 63 0 86 5 142 31 81 39 144 100 183 179 29 59 29
59 29 249 0 187 0 191 -28 251 -34 74 -102 143 -177 180 -75 38 -199 44 -279
15z m151 -318 c15 -14 18 -32 18 -120 0 -114 -9 -143 -43 -143 -41 0 -47 17
-47 136 0 89 3 116 16 128 20 20 33 20 56 -1z"/>
<path d="M2544 1922 c-101 -36 -186 -119 -224 -218 -26 -70 -37 -249 -21 -356
14 -100 43 -161 106 -223 182 -183 477 -131 592 103 28 56 28 59 28 247 l0
190 -32 66 c-39 79 -102 140 -181 177 -75 35 -193 41 -268 14z m150 -324 c12
-17 16 -48 16 -121 0 -108 -9 -137 -43 -137 -41 0 -47 17 -47 142 0 101 2 118
18 127 26 16 39 13 56 -11z"/>
<path d="M3379 1917 c-18 -12 -44 -38 -57 -57 l-23 -34 3 -356 c3 -354 3 -355
26 -388 31 -43 77 -66 132 -66 55 0 101 23 132 66 23 33 23 34 26 388 l3 356
-23 34 c-36 53 -83 80 -138 80 -32 0 -58 -7 -81 -23z"/>
</g>
</svg>
